<svg width="19" height="19" viewBox="0 0 19 19" fill="none" xmlns="http://www.w3.org/2000/svg">
<g clip-path="url(#clip0_259_33324)">
<path d="M0.527778 0.527778H18.4722V18.4722H0.527778V0.527778Z" stroke="#B7BDC8" stroke-width="1.05556"/>
<path d="M17.9446 1.05556H1.05566V17.9444H17.9446V1.05556Z" fill="white"/>
<path d="M7.38894 13.7222V15.8333L11.6112 15.8333V13.7222L13.7223 11.6111V7.63248C13.7223 7.24544 13.7041 6.71045 13.1945 6.4416C12.8936 6.28287 12.7019 6.33333 12.3149 6.33333V3.87037C12.3149 3.48173 11.9998 3.16667 11.6112 3.16667C11.2225 3.16667 10.9075 3.48173 10.9075 3.87037V6.33333H8.09265V3.87037C8.09265 3.48173 7.77759 3.16667 7.38894 3.16667C7.0003 3.16667 6.68524 3.48173 6.68524 3.87037V6.33333C6.2982 6.33333 6.1065 6.28287 5.80561 6.4416C5.29597 6.71045 5.27783 7.24544 5.27783 7.63248V11.6111L7.38894 13.7222Z" fill="#B7BDC8"/>
</g>
<defs>
<clipPath id="clip0_259_33324">
<rect width="19" height="19" fill="white"/>
</clipPath>
</defs>
</svg>
