<?xml version="1.0" encoding="utf-8"?>
<!-- Generator: Adobe Illustrator 25.2.3, SVG Export Plug-In . SVG Version: 6.00 Build 0)  -->
<svg version="1.1" id="Слой_1" xmlns="http://www.w3.org/2000/svg" xmlns:xlink="http://www.w3.org/1999/xlink" x="0px" y="0px"
	 width="19px" height="19px" viewBox="0 0 19 19" style="enable-background:new 0 0 19 19;" xml:space="preserve">
<style type="text/css">
	.st0{fill:#FFFFFF;}
	.st1{fill:#F44639;}
	.st2{fill:#F6F6F6;}
</style>
<path class="st0" d="M19,9.5c0,2.03-0.633,3.9-1.7181,5.43C15.5838,17.4,12.7203,19,9.495,19s-6.0788-1.6-7.7869-4.07
	C0.633,13.4,0,11.53,0,9.5C0,4.25,4.2501,0,9.495,0C14.7499,0,19,4.25,19,9.5z"/>
<path class="st0" d="M19,9.5c0,2.03-0.63,3.9-1.71,5.43C15.6,17.4,12.75,19,9.54,19s-6.05-1.6-7.75-4.07
	c-1.07-1.53-1.7-3.4-1.7-5.43C0.09,4.25,4.32,0,9.54,0C14.77,0,19,4.25,19,9.5z"/>
<path class="st1" d="M18.23,9.5c0,1.86-0.58,3.57-1.57,4.98c-1.56,2.26-4.17,3.73-7.11,3.73c-2.95,0-5.56-1.47-7.11-3.73
	c-0.99-1.41-1.57-3.12-1.57-4.98c0-4.81,3.89-8.71,8.68-8.71C14.34,0.79,18.23,4.69,18.23,9.5z"/>
<g>
	<path class="st2" d="M3,7v3h2v1H3v1h3V9H4V8h3v4h1V8h1v4h3V7H3z M11,11h-1V8h1V11z"/>
	<path class="st2" d="M13,7v5h1v-2h2V7H13z M15,9h-1V8h1V9z"/>
</g>
</svg>
